Simulation
nRows=46
nColumns=15
endheader
time  TH_x TH_y TH_z SC_y  SC_z  SC_x  AC_y  AC_z  AC_x  GH_y  GH_z  GH_yy  EL_x  PS_y
1.4450000000000003  0.000000  0.000000  0.000000  -65.526421952669  13.297762493155151  37.5342229923647  56.557495126435164  8.053047392555566  11.301347220375437  3.6963813525981735  44.025795671134446  -5.522991258617486  17.179939962819017  120.000000
1.4739000000000002  0.000000  0.000000  0.000000  -65.79580453515537  13.316061039281504  39.83212641736829  56.86001819432783  6.427717375527896  10.464288442835077  3.6823364999605857  44.0827361888552  -5.509090719952938  17.11000537651021  120.000000
1.5028000000000004  0.000000  0.000000  0.000000  -65.95635220715732  13.334095034409323  41.94318572737023  57.058319594172545  4.836445177212309  9.580306114862317  3.7241334272882236  44.049665853525774  -5.594628703132075  17.055286247875255  120.000000
1.5317000000000003  0.000000  0.000000  0.000000  -66.01731074832267  13.347468206216831  43.83278878167273  57.158713905380964  3.3124933975481  8.65446460752399  3.831385992812885  43.91737791008156  -5.7994641941691825  17.01200091045475  120.000000
1.5606000000000002  0.000000  0.000000  0.000000  -65.98610496558355  13.35484342387153  45.474821529761066  57.166189000761186  1.8781199706229679  7.6880781382159595  4.011531790088443  43.68098670881204  -6.129196405514364  16.97753828469215  120.000000
1.5895000000000004  0.000000  0.000000  0.000000  -65.86678061261178  13.35892242547277  46.85234196639398  57.08255136745691  0.5443377220230815  6.679139709844514  4.269250339386072  43.340496688516005  -6.574869846063776  16.951327153079376  120.000000
1.6184000000000003  0.000000  0.000000  0.000000  -65.6598481691991  13.36549492329787  47.95837340560056  56.90616706190522  -0.6881156273579114  5.6229150075891186  4.605583585498766  42.89995552315244  -7.115951346394417  16.935270970858785  120.000000
1.6473000000000002  0.000000  0.000000  0.000000  -65.36348123511348  13.381337519682882  48.79671277155461  56.633748707780505  -1.8273297645755373  4.512945047239317  5.017378590175538  42.366253053225584  -7.725687604260036  16.932710548494562  120.000000
1.6762000000000004  0.000000  0.000000  0.000000  -64.97586382431722  13.411578269167572  49.3832665473958  56.26359177791982  -2.8887633438303015  3.3425382330585522  5.496904448065457  41.74771881291723  -8.376923349479751  16.947020616877534  120.000000
1.7051000000000003  0.000000  0.000000  0.000000  -64.49704196076644  13.457102526041933  49.747273181476565  55.79805286170935  -3.893302891397838  2.1055000269679174  6.032091652635982  41.05279097606736  -9.046783112128697  16.979964936645377  120.000000
1.7340000000000004  0.000000  0.000000  0.000000  -63.92988471626037  13.512181721011439  49.93286635051861  55.24506155502058  -4.865084071410054  0.7955988542898478  6.6069214900245  40.28819521204748  -9.719344388873429  17.02998029665961  120.000000
1.7629000000000004  0.000000  0.000000  0.000000  -63.281254494774466  13.563513102562663  50.00000055944556  54.61800171039675  -5.8290261247855275  -0.594956347455508  7.203535404667891  39.45578406756065  -10.385276591962048  17.09156434469714  120.000000
1.7918000000000003  0.000000  0.000000  0.000000  -62.560358448327236  13.595191829243532  50.000000541489605  53.932496129332975  -6.800133512450649  -2.0690463143620197  7.806637436581136  38.558971870149534  -11.040013826262154  17.15749040437687  120.000000
1.8207000000000004  0.000000  0.000000  0.000000  -61.77531040123281  13.595187831490607  49.940519807222586  53.202898884098644  -7.771284951510692  -3.613501504381171  8.407326032837094  37.61496529011966  -11.682499310370043  17.222009231561703  120.000000
1.8496000000000004  0.000000  0.000000  0.000000  -60.9347815043678  13.554352854793793  49.797647990638794  52.44275779355468  -8.72071348361879  -5.201558542105252  9.001596927742735  36.649685572469686  -12.312538870892798  17.280789463999724  120.000000
1.8785000000000003  0.000000  0.000000  0.000000  -60.05159461932665  13.463381283007134  49.54941176286722  51.66801204822128  -9.626420801809454  -6.802059662395966  9.585412624830024  35.68460280555867  -12.92997959409578  17.328893042393588  120.000000
1.9074000000000004  0.000000  0.000000  0.000000  -59.14308868216563  13.313540719737292  49.18518432569856  50.89733420425939  -10.470381345262155  -8.38168616396419  10.152350495409125  34.7339159512594  -13.534934280124551  17.36074280753356  120.000000
1.9363000000000004  0.000000  0.000000  0.000000  -58.23060488686452  13.098766318608021  48.703733096644434  50.15105623647883  -11.23807570949691  -9.905134975626693  10.69389166317979  33.804767221194695  -14.127644352403516  17.371741325465656  120.000000
1.9652000000000003  0.000000  0.000000  0.000000  -57.33838315326265  12.817266910315547  48.10995694267966  49.44897172366975  -11.918091245432198  -11.337322471679672  11.20090239082608  32.89731243950115  -14.707261579234963  17.359798585112785  120.000000
1.9941000000000004  0.000000  0.000000  0.000000  -56.49103740316473  12.472209134884253  47.41119869573183  48.8079712584981  -12.501617602014878  -12.647038807083046  11.665358604055236  32.00552423647348  -15.269683703295145  17.325700524941862  120.000000
2.0230000000000006  0.000000  0.000000  0.000000  -55.70999281603075  12.072772579539718  46.614348696829225  48.23872939532666  -12.982063458854078  -13.809311450334748  12.082048938029468  31.118212850339045  -15.805783196581267  17.272202143441763  120.000000
2.0519000000000003  0.000000  0.000000  0.000000  -55.010343878652954  11.634265724498103  45.72454410185913  47.74410703716027  -13.3545965861213  -14.806057254143797  12.449839328260671  30.22025169835993  -16.30179649837276  17.202628109326284  120.000000
2.0808000000000004  0.000000  0.000000  0.000000  -54.399491605826995  11.175583135327606  44.74544750433756  47.320457930534985  -13.615381225632945  -15.626345933346132  12.772579606867989  29.294392081349972  -16.74237068976735  17.119849793642206  120.000000
2.1097000000000006  0.000000  0.000000  0.000000  -53.87726888954452  10.716165230130947  43.68017120685992  46.960147770284856  -13.761583066655561  -16.26595243938896  13.05884404839275  28.323131353762925  -17.115591896043455  17.025845827584757  120.000000
2.1386000000000003  0.000000  0.000000  0.000000  -53.43694294526964  10.273161390556739  42.532617405708876  46.65383534179097  -13.792119152756197  -16.727166666912364  13.321205191956745  27.290287550365985  -17.417972142144865  16.921267088916533  120.000000
2.1675000000000004  0.000000  0.000000  0.000000  -53.066075427728656  9.857527977101253  41.30840433803627  46.39249385205534  -13.70803056977922  -17.019674788676102  13.574671890339012  26.18293645023875  -17.657860204674353  16.80503474271158  120.000000
2.1964000000000006  0.000000  0.000000  0.000000  -52.74690679128983  9.469860074506272  40.016593786196424  46.167669141339225  -13.511576699735658  -17.16393291592924  13.836123944906804  24.993396174220894  -17.854189071656677  16.67610693293523  120.000000
2.2253000000000003  0.000000  0.000000  0.000000  -52.45869841449861  9.102139992701716  38.66795220086838  45.97049813716863  -13.2050987156815  -17.188734416404113  14.12586643920705  23.721612292509317  -18.030981203546972  16.535970643829774  120.000000
2.2542000000000004  0.000000  0.000000  0.000000  -52.18629236086942  8.748202057406646  37.26354299809749  45.79823549959117  -12.788437233645466  -17.10768676559792  14.46255096991433  22.372980805591833  -18.21122501206427  16.385111837784788  120.000000
2.2831000000000006  0.000000  0.000000  0.000000  -51.926368718286355  8.411171629038124  35.78985174679507  45.65797739234882  -12.260401517484723  -16.904286236345364  14.856962316842719  20.9553207855139  -18.409283094404543  16.21900405841469  120.000000
2.3120000000000003  0.000000  0.000000  0.000000  -51.679668409998214  8.098393839923082  34.231141783244496  45.55600839081918  -11.624176888333448  -16.556127763018246  15.318653240492406  19.48143596351809  -18.625220082994257  16.032460772372787  120.000000
2.3409000000000004  0.000000  0.000000  0.000000  -51.44029514851178  7.813250208190829  32.58115091296997  45.489222520206916  -10.888354682228163  -16.059931759757692  15.860876276774718  17.970197361713346  -18.842783542048213  15.823613353092753  120.000000
2.3698000000000006  0.000000  0.000000  0.000000  -51.19450773370077  7.5543215331189435  30.84491740910511  45.447117783754734  -10.067040753195952  -15.431205243891213  16.49768124438934  16.444152978640385  -19.034815916915704  15.592183593624801  120.000000
2.3987000000000003  0.000000  0.000000  0.000000  -50.92464016426006  7.317890303659563  29.037996490799873  45.416402122529455  -9.180734332677922  -14.696049837736439  17.24090138432673  14.926738029540667  -19.172364150418872  15.338928613855224  120.000000
2.4276000000000004  0.000000  0.000000  0.000000  -50.613241360273854  7.098660392522985  27.185005411901166  45.386195215014844  -8.254755237811066  -13.884270008470732  18.0971980110832  13.440366619355908  -19.233740637467676  15.066814947076434  120.000000
2.4565000000000006  0.000000  0.000000  0.000000  -50.24721522903962  6.89006336869999  25.31635056429472  45.35244009553172  -7.316133558576796  -13.022933913409334  19.06471850690455  12.005915264260498  -19.211817386251994  14.78168090304049  120.000000
2.4854000000000003  0.000000  0.000000  0.000000  -49.821209159845615  6.685319207607296  23.464331693083714  45.31985354352973  -6.390042809468001  -12.132245566285398  20.13164224187251  10.642419806534283  -19.1166429683981  14.492796841199308  120.000000
2.5143000000000004  0.000000  0.000000  0.000000  -49.33859841913107  6.4789229335318606  21.65911646523033  45.299842414147676  -5.496848648542509  -11.224985163665247  21.277497881930703  9.367403695140236  -18.971920491558897  14.212776002897614  120.000000
2.5432000000000006  0.000000  0.000000  0.000000  -48.81009147588429  6.2680785805996395  19.92603263853115  45.306243619659796  -4.650374387168936  -10.308450408435023  22.47675591705883  8.196326398778554  -18.80788927949233  13.95630884420711  120.000000
2.5721000000000003  0.000000  0.000000  0.000000  -48.25055454311864  6.053725248255667  18.28393924905433  45.35033115225983  -3.8579191139498197  -9.387432621258013  23.703626722754244  7.141684596555891  -18.65340934500749  13.738494342793656  120.000000
2.6010000000000004  0.000000  0.000000  0.000000  -47.67555541904216  5.840619603631733  16.745071607134758  45.43765736311865  -3.121053478164558  -8.466443134695034  24.93667373128838  6.210982100810843  -18.529516692757348  13.57305844415528  120.000000
2.6299000000000006  0.000000  0.000000  0.000000  -47.09859521844054  5.636043115187363  15.315474204961298  45.56753246118179  -2.437317140695367  -7.550755418294192  26.16176890868494  5.405748482406577  -18.446498534736296  13.470816878619885  120.000000
2.6588000000000007  0.000000  0.000000  0.000000  -46.531030801398266  5.447271196751687  13.995495618300986  45.735720035643084  -1.801217397017871  -6.64507244673957  27.372404080818924  4.721096069434525  -18.404606216022522  13.438635762944399  120.000000
2.6877000000000004  0.000000  0.000000  0.000000  -45.983679284741115  5.279001937814966  12.779915798902932  45.938997668985984  -1.20596519375764  -5.751530029885486  28.56781187080857  4.147127434846124  -18.397901781073525  13.478779814046357  120.000000
2.7166000000000006  0.000000  0.000000  0.000000  -45.468200498206905  5.131421849253969  11.66003696080688  46.17819226909607  -0.6464730066256245  -4.869868627156222  29.75041464136858  3.6696801539798005  -18.417975756214854  13.589825619243525  120.000000
2.7455000000000007  0.000000  0.000000  0.000000  -44.99667775139114  4.998932016389487  10.624360160636456  46.45889295295142  -0.12138626480502135  -3.9990911315508435  30.925047664771466  3.271014531232528  -18.455527725756486  13.7692127756189  120.000000
